<?xml version="1.0" standalone="no"?>
<!DOCTYPE svg PUBLIC "-//W3C//DTD SVG 20010904//EN"
 "http://www.w3.org/TR/2001/REC-SVG-20010904/DTD/svg10.dtd">
<svg version="1.0" xmlns="http://www.w3.org/2000/svg"
 width="64.000000pt" height="64.000000pt" viewBox="0 0 64.000000 64.000000"
 preserveAspectRatio="xMidYMid meet">

<g transform="translate(0.000000,64.000000) scale(0.100000,-0.100000)"
fill="#000000" stroke="none">
<path d="M300 580 c-11 -11 -29 -20 -40 -20 -13 0 -20 -7 -20 -20 0 -19 7 -20
90 -20 83 0 90 1 90 20 0 14 -7 20 -23 20 -13 0 -32 9 -42 20 -10 11 -22 20
-27 20 -4 0 -17 -9 -28 -20z"/>
<path d="M566 543 c-11 -11 -6 -23 9 -23 8 0 15 4 15 9 0 13 -16 22 -24 14z"/>
<path d="M152 313 c2 -160 6 -217 15 -220 10 -4 13 40 15 184 l3 188 143 3
142 3 0 -192 c0 -148 3 -190 13 -187 9 4 13 59 15 221 l2 217 -29 0 c-16 0
-31 -6 -35 -15 -8 -22 -216 -22 -216 0 0 10 -11 15 -35 15 l-35 0 2 -217z"/>
<path d="M90 485 c0 -9 5 -15 11 -13 6 2 11 8 11 13 0 5 -5 11 -11 13 -6 2
-11 -4 -11 -13z"/>
<path d="M200 270 l0 -180 24 0 c23 0 24 2 13 30 -8 22 -9 35 -1 48 13 20 60
28 79 12 9 -7 15 -8 20 0 3 5 20 10 36 10 38 0 58 -37 41 -75 -11 -23 -10 -25
13 -25 l25 0 0 180 0 180 -125 0 -125 0 0 -180z m98 113 c3 -32 2 -33 -32 -33
-33 0 -36 3 -36 28 0 36 8 44 40 40 20 -2 26 -9 28 -35z m72 7 c0 -5 -11 -10
-25 -10 -14 0 -25 5 -25 10 0 6 11 10 25 10 14 0 25 -4 25 -10z m50 -30 c0 -5
-22 -10 -50 -10 -27 0 -50 5 -50 10 0 6 23 10 50 10 28 0 50 -4 50 -10z m-122
-77 c3 -32 2 -33 -32 -33 -33 0 -36 3 -36 28 0 36 8 44 40 40 20 -2 26 -9 28
-35z m72 7 c0 -5 -11 -10 -25 -10 -14 0 -25 5 -25 10 0 6 11 10 25 10 14 0 25
-4 25 -10z m50 -30 c0 -5 -22 -10 -50 -10 -27 0 -50 5 -50 10 0 6 23 10 50 10
28 0 50 -4 50 -10z"/>
<path d="M250 385 c0 -8 7 -15 15 -15 8 0 15 7 15 15 0 8 -7 15 -15 15 -8 0
-15 -7 -15 -15z"/>
<path d="M250 285 c0 -8 7 -15 15 -15 8 0 15 7 15 15 0 8 -7 15 -15 15 -8 0
-15 -7 -15 -15z"/>
<path d="M52 219 c2 -6 8 -10 13 -10 5 0 11 4 13 10 2 6 -4 11 -13 11 -9 0
-15 -5 -13 -11z"/>
<path d="M267 168 c-28 -15 -21 -38 12 -38 16 0 32 -6 35 -12 5 -10 7 -10 12
0 3 6 21 12 40 12 39 0 47 22 14 40 -15 8 -23 6 -39 -11 -18 -19 -21 -20 -26
-6 -9 21 -27 27 -48 15z"/>
<path d="M562 158 c6 -18 28 -21 28 -4 0 9 -7 16 -16 16 -9 0 -14 -5 -12 -12z"/>
<path d="M285 80 c16 -16 34 -30 40 -30 6 0 24 14 40 30 l29 30 -26 0 c-18 0
-28 -7 -32 -22 l-7 -23 -16 23 c-8 12 -25 22 -36 22 -19 0 -19 -2 8 -30z"/>
</g>
</svg>
